<svg width="30" height="30" viewBox="0 0 30 30" fill="none" xmlns="http://www.w3.org/2000/svg">
<mask id="mask0_1808_645" style="mask-type:luminance" maskUnits="userSpaceOnUse" x="0" y="0" width="30" height="30">
<path d="M29.4446 0.555664H0.555664V29.4446H29.4446V0.555664Z" fill="white"/>
</mask>
<g mask="url(#mask0_1808_645)">
<path d="M23.7501 0.555664H6.25011C5.73441 0.555664 5.23983 0.760525 4.87518 1.12518C4.51052 1.48983 4.30566 1.98441 4.30566 2.50011C4.30566 3.01581 4.51052 3.51038 4.87518 3.87504C5.23983 4.23969 5.73441 4.44455 6.25011 4.44455H6.41955C6.84548 12.0779 7.26955 19.7112 7.69178 27.3446C7.72306 27.9125 7.97092 28.4468 8.38433 28.8375C8.79774 29.2281 9.3452 29.4454 9.914 29.4446H20.089C20.6578 29.4454 21.2053 29.2281 21.6187 28.8375C22.0321 28.4468 22.2799 27.9125 22.3112 27.3446C22.7353 19.7112 23.1584 12.0779 23.5807 4.44455H23.7501C24.2658 4.44455 24.7604 4.23969 25.125 3.87504C25.4897 3.51038 25.6946 3.01581 25.6946 2.50011C25.6946 1.98441 25.4897 1.48983 25.125 1.12518C24.7604 0.760525 24.2658 0.555664 23.7501 0.555664ZM21.2001 27.2834C21.1845 27.5674 21.0605 27.8346 20.8538 28.0299C20.6471 28.2252 20.3734 28.3339 20.089 28.3334H9.91122C9.62682 28.3339 9.35309 28.2252 9.14639 28.0299C8.93968 27.8346 8.81575 27.5674 8.80011 27.2834L8.489 21.6668H21.5112L21.2001 27.2834ZM21.5751 20.5557H8.42511L7.88622 10.8334H22.114L21.5751 20.5557ZM23.7501 3.33344H13.3334V4.44455H22.4696L22.1751 9.72233H7.82511L7.53066 4.44455H10.0001V3.33344H6.25011C6.02909 3.33344 5.81713 3.24564 5.66085 3.08936C5.50457 2.93308 5.41678 2.72112 5.41678 2.50011C5.41678 2.27909 5.50457 2.06713 5.66085 1.91085C5.81713 1.75457 6.02909 1.66678 6.25011 1.66678H23.7501C23.9711 1.66678 24.1831 1.75457 24.3394 1.91085C24.4956 2.06713 24.5834 2.27909 24.5834 2.50011C24.5834 2.72112 24.4956 2.93308 24.3394 3.08936C24.1831 3.24564 23.9711 3.33344 23.7501 3.33344Z" fill="#008A3F"/>
<path d="M6.75867 10.586C6.69837 10.4945 6.66648 10.3872 6.667 10.2777C6.66708 10.1898 6.68803 10.1031 6.72811 10.0249L6.75867 10.586Z" fill="#008A3F"/>
<path d="M23.3339 10.278C23.3344 10.3876 23.3025 10.4948 23.2422 10.5863L23.2727 10.0308C23.312 10.1073 23.3329 10.192 23.3339 10.278Z" fill="#008A3F"/>
<path d="M11.8501 17.8612C11.8501 17.8918 11.8279 17.9195 11.8168 17.9445C11.039 16.7501 11.4251 14.8612 12.7945 13.5001C13.9945 12.3001 15.589 11.8557 16.7695 12.2862C16.5206 12.6825 16.3192 13.1067 16.1695 13.5501C16.0475 13.9713 15.8446 14.3647 15.5723 14.7084C15.2286 14.9808 14.8352 15.1836 14.414 15.3057C13.8111 15.4894 13.2537 15.7979 12.7779 16.2112C12.3549 16.6891 12.0386 17.2515 11.8501 17.8612Z" fill="#008A3F"/>
<path d="M16.9191 17.6167C15.7247 18.8111 14.1413 19.2556 12.958 18.8361C13.0275 18.675 13.0913 18.5111 13.1497 18.3528C13.2717 17.9316 13.4746 17.5382 13.7469 17.1944C14.0906 16.9221 14.484 16.7193 14.9052 16.5972C15.5139 16.412 16.0764 16.0995 16.5552 15.6806C16.9742 15.2017 17.2867 14.6393 17.4719 14.0306C17.5787 13.7172 17.7135 13.4142 17.8747 13.125C18.683 14.3167 18.3052 16.2333 16.9191 17.6167Z" fill="#008A3F"/>
<path d="M12.2224 3.88905C12.2224 3.58223 11.9737 3.3335 11.6669 3.3335C11.3601 3.3335 11.1113 3.58223 11.1113 3.88905C11.1113 4.19588 11.3601 4.44461 11.6669 4.44461C11.9737 4.44461 12.2224 4.19588 12.2224 3.88905Z" fill="#008A3F"/>
</g>
</svg>
