<svg width="30" height="30" viewBox="0 0 30 30" fill="none" xmlns="http://www.w3.org/2000/svg">
<g clip-path="url(#clip0_1808_609)">
<path d="M25.602 4.39799C22.7672 1.56193 19.0026 0 14.9988 0C10.9978 0 7.23287 1.56193 4.39805 4.39799C1.56158 7.23363 -0.000351503 10.9986 5.93348e-08 15C-0.000351503 19.0014 1.56158 22.7663 4.39805 25.6016C7.23287 28.4381 10.9974 30 15 30L15.0012 29.8768L15.002 30C19.0026 30 22.7672 28.4381 25.602 25.6016C28.4384 22.7663 30.0008 19.0014 30 15C30.0008 10.9986 28.4384 7.23363 25.602 4.39799ZM24.5679 24.5679C22.0076 27.1274 18.6092 28.5376 15 28.538C11.3909 28.5376 7.99277 27.1274 5.43211 24.5679C2.87262 22.0076 1.46244 18.6096 1.46203 15C1.46244 11.3904 2.87262 7.9923 5.43211 5.43164C7.99313 2.87221 11.3908 1.46238 15 1.46197C18.6092 1.46238 22.0069 2.87221 24.5679 5.43164C27.1274 7.9923 28.538 11.3904 28.538 15C28.538 18.6096 27.1274 22.0076 24.5679 24.5679Z" fill="#008A3F"/>
<path d="M14.9997 3.9165C8.87844 3.91691 3.91648 8.87852 3.91602 15.0002C3.91648 21.1219 8.87844 26.0835 14.9997 26.0839C21.1218 26.0835 26.0834 21.1219 26.0834 15.0002C26.0834 8.87852 21.1218 3.91691 14.9997 3.9165ZM21.9656 21.9657C20.1809 23.7493 17.7218 24.8504 14.9997 24.8508C12.2776 24.8504 9.81893 23.7493 8.03457 21.9657C6.25074 20.181 5.14918 17.7223 5.14918 15.0002C5.14959 12.2781 6.25068 9.81947 8.03457 8.03471C9.81899 6.25117 12.2777 5.15008 14.9997 5.14967C17.7218 5.15008 20.1809 6.25117 21.9656 8.03471C23.7488 9.81947 24.8503 12.2781 24.8503 15.0002C24.8503 17.7223 23.7487 20.181 21.9656 21.9657Z" fill="#008A3F"/>
<path d="M18.6392 9.67115L18.5789 7.74072L17.2783 7.75883L17.3386 9.68926L18.6392 9.67115Z" fill="#008A3F"/>
<path d="M7.55957 12.6329L10.1246 13.9423L10.7212 12.7746L8.15611 11.4644L7.55957 12.6329Z" fill="#008A3F"/>
<path d="M8.78584 16.9248C8.11459 16.9248 7.57031 17.4687 7.57031 18.1403C7.57031 18.8115 8.11465 19.3558 8.78584 19.3558C9.45738 19.3558 10.0017 18.8115 10.0017 18.1403C10.0017 17.4687 9.45732 16.9248 8.78584 16.9248Z" fill="#008A3F"/>
<path d="M14.7975 8.95873C14.7975 8.0258 14.0412 7.26953 13.1091 7.26953C12.1758 7.26953 11.4199 8.02586 11.4199 8.95873C11.4199 9.89084 12.1758 10.6475 13.1091 10.6475C14.0412 10.6475 14.7975 9.89084 14.7975 8.95873Z" fill="#008A3F"/>
<path d="M12.1973 22.3595L14.0915 22.8986L14.2598 21.6758L12.3658 21.1367L12.1973 22.3595Z" fill="#008A3F"/>
<path d="M13.7276 15.2559C12.9127 15.2559 12.252 15.9166 12.252 16.7311C12.252 17.5459 12.9127 18.2068 13.7276 18.2068C14.5424 18.2068 15.2029 17.5459 15.2029 16.7311C15.2029 15.9166 14.5424 15.2559 13.7276 15.2559Z" fill="#008A3F"/>
<path d="M18.897 18.7773C17.9911 18.7773 17.2568 19.5116 17.2568 20.4172C17.2568 21.3232 17.991 22.0574 18.897 22.0574C19.8027 22.0574 20.5365 21.3232 20.5365 20.4172C20.5365 19.5116 19.8027 18.7773 18.897 18.7773Z" fill="#008A3F"/>
<path d="M20.1023 14.1471C20.9228 14.1471 21.5884 13.482 21.5884 12.6614C21.5884 11.8409 20.9228 11.1758 20.1023 11.1758C19.2817 11.1758 18.6162 11.8409 18.6162 12.6614C18.6162 13.4819 19.2818 14.1471 20.1023 14.1471Z" fill="#008A3F"/>
<path d="M22.7316 15.8965L21.0762 17.0213L21.4607 17.9971L23.117 16.8727L22.7316 15.8965Z" fill="#008A3F"/>
</g>
<defs>
<clipPath id="clip0_1808_609">
<rect width="30" height="30" fill="white"/>
</clipPath>
</defs>
</svg>
